<svg width="120" height="120" viewBox="0 0 120 120" fill="none" xmlns="http://www.w3.org/2000/svg">
  <!-- File shape with folded corner -->
  <path d="M20 8 L80 8 L100 28 L100 112 L20 112 Z" fill="#2A2A2A"/>

  <!-- Folded corner -->
  <path d="M80 8 L80 28 L100 28 Z" fill="#4A4A4A"/>

  <!-- Ableton-style clip bars -->
  <!-- Teal/green clips (left column) -->
  <rect x="32" y="44" width="16" height="10" rx="1" fill="#2DD4A8"/>
  <rect x="32" y="58" width="24" height="10" rx="1" fill="#2DD4A8"/>
  <rect x="32" y="86" width="12" height="8" rx="1" fill="#2DD4A8"/>

  <!-- Pink/magenta clips (middle column) -->
  <rect x="52" y="44" width="20" height="10" rx="1" fill="#E855A0"/>
  <rect x="60" y="58" width="16" height="10" rx="1" fill="#FFB0D0"/>
  <rect x="60" y="72" width="20" height="10" rx="1" fill="#FFB0D0"/>

  <!-- Blue/purple clips (right column) -->
  <rect x="76" y="44" width="12" height="10" rx="1" fill="#6B7FD6"/>
  <rect x="48" y="86" width="18" height="8" rx="1" fill="#5AC8E8"/>
  <rect x="70" y="86" width="14" height="8" rx="1" fill="#5AC8E8"/>
</svg>
