<svg width="120" height="120" viewBox="0 0 120 120" fill="none" xmlns="http://www.w3.org/2000/svg">
  <!-- Folder back -->
  <path d="M16 35C16 31.686 18.686 29 22 29H45L55 39H98C101.314 39 104 41.686 104 45V89C104 92.314 101.314 95 98 95H22C18.686 95 16 92.314 16 89V35Z" fill="#E8B84A"/>
  
  <!-- Folder front -->
  <path d="M16 50C16 46.686 18.686 44 22 44H98C101.314 44 104 46.686 104 50V89C104 92.314 101.314 95 98 95H22C18.686 95 16 92.314 16 89V50Z" fill="#F4CA5C"/>
  
  <!-- Subtle highlight -->
  <path d="M16 50C16 46.686 18.686 44 22 44H98C101.314 44 104 46.686 104 50V55H16V50Z" fill="#F9D97A"/>
</svg>
