<svg width="120" height="120" viewBox="0 0 120 120" fill="none" xmlns="http://www.w3.org/2000/svg">
  <!-- Rounded square background -->
  <rect x="4" y="4" width="112" height="112" rx="20" fill="#2A2A2A"/>
  <rect x="4" y="4" width="112" height="112" rx="20" stroke="#3A3A3A" stroke-width="2"/>

  <!-- File shape -->
  <path d="M40 25H70L85 40V95H40C37.239 95 35 92.761 35 90V30C35 27.239 37.239 25 40 25Z" fill="#4A4A4A"/>

  <!-- Folded corner -->
  <path d="M70 25V40H85L70 25Z" fill="#5A5A5A"/>

  <!-- Zipper pattern down the middle -->
  <rect x="54" y="30" width="12" height="6" rx="1" fill="#6A6A6A"/>
  <rect x="54" y="40" width="12" height="6" rx="1" fill="#5A5A5A"/>
  <rect x="54" y="50" width="12" height="6" rx="1" fill="#6A6A6A"/>
  <rect x="54" y="60" width="12" height="6" rx="1" fill="#5A5A5A"/>
  <rect x="54" y="70" width="12" height="6" rx="1" fill="#6A6A6A"/>

  <!-- Zipper pull tab -->
  <rect x="56" y="80" width="8" height="10" rx="2" fill="#7A7A7A"/>
  <rect x="58" y="82" width="4" height="4" rx="1" fill="#5A5A5A"/>
</svg>
